<svg xmlns="http://www.w3.org/2000/svg" viewBox="0 0 600 600" width="600" height="600">
  <defs>
    <radialGradient id="bg" cx="50%" cy="42%" r="75%">
      <stop offset="0%" stop-color="#241634"/>
      <stop offset="100%" stop-color="#140C22"/>
    </radialGradient>
    <linearGradient id="gem" x1="0" y1="0" x2="1" y2="1">
      <stop offset="0%" stop-color="#9fc6e8"/>
      <stop offset="55%" stop-color="#5b8fc7"/>
      <stop offset="100%" stop-color="#2f5d96"/>
    </linearGradient>
  </defs>
  <rect width="600" height="600" fill="url(#bg)"/>
  <circle cx="300" cy="280" r="210" fill="none" stroke="#C9A227" stroke-width="1" opacity="0.18"/>
  <circle cx="300" cy="280" r="170" fill="none" stroke="#C9A227" stroke-width="1" opacity="0.10"/>
  <g transform="translate(300 270)">
    <polygon points="-110,-40 -55,-95 55,-95 110,-40 0,110" fill="url(#gem)" stroke="#dCEafc" stroke-width="2"/>
    <polygon points="-110,-40 110,-40 0,110" fill="#ffffff" opacity="0.08"/>
    <line x1="-110" y1="-40" x2="110" y2="-40" stroke="#eaf3ff" stroke-width="1.5" opacity="0.7"/>
    <line x1="-55" y1="-95" x2="-30" y2="-40" stroke="#eaf3ff" stroke-width="1.2" opacity="0.6"/>
    <line x1="55" y1="-95" x2="30" y2="-40" stroke="#eaf3ff" stroke-width="1.2" opacity="0.6"/>
    <line x1="-30" y1="-40" x2="0" y2="110" stroke="#cfe2fb" stroke-width="1.2" opacity="0.6"/>
    <line x1="30" y1="-40" x2="0" y2="110" stroke="#cfe2fb" stroke-width="1.2" opacity="0.6"/>
    <line x1="-30" y1="-40" x2="30" y2="-40" stroke="#eaf3ff" stroke-width="1" opacity="0.5"/>
  </g>
  <g fill="#C9A227" opacity="0.8">
    <circle cx="160" cy="150" r="2.5"/><circle cx="450" cy="180" r="2"/>
    <circle cx="430" cy="430" r="2.5"/><circle cx="180" cy="420" r="2"/>
  </g>
  <text x="300" y="500" text-anchor="middle" fill="#C9A227" opacity="0.85"
        font-family="Georgia, serif" font-size="30" letter-spacing="3">GEMSTONE</text>
</svg>
